<svg width="320" height="156" fill="none" xmlns="http://www.w3.org/2000/svg"><path fill-rule="evenodd" clip-rule="evenodd" d="M287.877 2H32.123C5.16 2-8.167 34.773 11.14 53.604c13.709 13.373 13.709 35.42 0 48.792C-8.168 121.227 5.159 154 32.123 154h255.754c26.964 0 40.291-32.773 20.984-51.604-13.709-13.373-13.709-35.42 0-48.792C328.168 34.773 314.841 2 287.877 2ZM32.123 0C3.366 0-10.847 34.952 9.743 55.036c12.905 12.588 12.905 33.34 0 45.928C-10.847 121.048 3.366 156 32.123 156h255.754c28.757 0 42.97-34.952 22.38-55.036-12.905-12.588-12.905-33.34 0-45.928C330.847 34.952 316.634 0 287.877 0H32.123Z" fill="#000"/></svg>