<svg width="432" height="200" fill="none" xmlns="http://www.w3.org/2000/svg"><path d="m272.043 9.39 15.213-2.527c10.607-1.761 21.424 1.617 29.037 9.06 6.441 6.296 15.11 9.906 24.194 10.08l25.541.489c7.172.137 13.064 5.54 13.711 12.507.638 6.876 5.756 12.528 12.608 13.973l20.861 4.4c6.774 1.429 9.628 9.3 5.366 14.592-4.463 5.542-2.609 13.698 3.798 16.864l2.328 1.15c8.4 4.15 8.4 15.894 0 20.044l-2.328 1.15c-6.407 3.166-8.261 11.322-3.798 16.864 4.262 5.292 1.408 13.163-5.366 14.592l-20.861 4.4c-6.852 1.445-11.97 7.097-12.608 13.973-.647 6.968-6.539 12.37-13.711 12.507l-25.541.489c-9.084.174-17.753 3.784-24.194 10.081-7.613 7.442-18.43 10.82-29.037 9.059l-15.213-2.526a60.876 60.876 0 0 0-33.398 3.86 58.874 58.874 0 0 1-45.29 0 60.876 60.876 0 0 0-33.398-3.86l-15.213 2.526c-10.607 1.761-21.424-1.617-29.037-9.059-6.441-6.297-15.11-9.907-24.194-10.081l-25.54-.489c-7.173-.137-13.065-5.539-13.712-12.507-.638-6.876-5.756-12.528-12.608-13.973l-20.86-4.4c-6.775-1.429-9.629-9.3-5.367-14.592 4.463-5.542 2.61-13.698-3.798-16.864l-2.328-1.15c-8.4-4.15-8.4-15.894 0-20.044l2.328-1.15c6.407-3.166 8.261-11.322 3.798-16.864-4.262-5.292-1.408-13.163 5.366-14.592l20.86-4.4c6.853-1.445 11.97-7.097 12.609-13.973.647-6.968 6.54-12.37 13.711-12.507l25.54-.49c9.085-.173 17.754-3.783 24.195-10.08 7.613-7.442 18.43-10.82 29.037-9.059l15.213 2.526a60.88 60.88 0 0 0 33.398-3.86 58.877 58.877 0 0 1 45.29 0 60.88 60.88 0 0 0 33.398 3.86Z" stroke="#fff" stroke-width="2"/></svg>